<?xml version="1.0" encoding="UTF-8"?><svg id="a" xmlns="http://www.w3.org/2000/svg" width="100" height="100" viewBox="0 0 501.9 411.87"><defs><style>.b{fill:#fff;}.c{fill:#57a646;}</style></defs><path class="c" d="m500.74,158.73c3.14,26.45-.01,53.37-10.34,77.93-44.02,104.7-185.62,112.97-292.23,96.28C14.86,313.72,4.04,465.64.98,391.19-5.72,273.68,20.8,140.58,119.16,63,254.2-37.95,478.87-25.58,500.74,158.73Z"/><path class="c" d="m497.98,216h0s.02,0,0,0Zm-124.67,113.92l.02-.02s-.02,0-.02.02ZM363.37,4.56s0-.01,0-.02t0,.02Zm-232.19,330.37l.02-.02s-.02.01-.02.02Z"/><rect class="b" x="255.09" y="79.43" width="40.8" height="40.8"/><rect class="b" x="351.31" y="79.43" width="40.8" height="40.8"/><rect class="b" x="218.76" y="185.12" width="40.8" height="40.8"/><rect class="b" x="259.56" y="225.92" width="124.33" height="40.8"/><rect class="b" x="383.89" y="185.12" width="40.8" height="40.8"/></svg>
